<svg xmlns="http://www.w3.org/2000/svg" viewBox="0 0 512 512">
  <defs>
    <linearGradient id="brandGradient" x1="0%" y1="0%" x2="100%" y2="100%">
      <stop offset="0%" style="stop-color:#3b82f6;stop-opacity:1" />
      <stop offset="100%" style="stop-color:#1d4ed8;stop-opacity:1" />
    </linearGradient>
    <filter id="glow" x="-20%" y="-20%" width="140%" height="140%">
      <feGaussianBlur stdDeviation="10" result="blur" />
      <feComposite in="SourceGraphic" in2="blur" operator="over" />
    </filter>
  </defs>
  
  <!-- Shield Background -->
  <path d="M256 48C148 48 64 132 64 240c0 88 56 164 136 196 28 12 56 28 56 28s28-16 56-28c80-32 136-108 136-196 0-108-84-192-192-192z" 
        fill="url(#brandGradient)" 
        filter="url(#glow)" />
        
  <!-- Inner Design (Checkmark/Leaf Stylized) -->
  <path d="M352 176c-12 0-24 6-32 16l-80 96-48-48c-12-12-32-12-44 0s-12 32 0 44l64 64c6 6 14 10 22 10s16-4 22-10l96-116c12-12 10-32-2-44-6-8-14-12-22-12z" 
        fill="white" 
        opacity="0.9" />
        
  <!-- Subtle Shine -->
  <path d="M256 64c80 0 148 50 172 120-20-80-100-140-190-140-60 0-112 28-144 72 24-40 86-52 162-52z" 
        fill="white" 
        opacity="0.2" />
</svg>