<svg xmlns="http://www.w3.org/2000/svg" width="1920" height="1080" viewBox="0 0 1920 1080" preserveAspectRatio="xMidYMid slice">
  <defs>
    <linearGradient id="sky3" x1="0" y1="0" x2="0" y2="1">
      <stop offset="0%" stop-color="#FEF3C7"/>
      <stop offset="100%" stop-color="#FDE68A"/>
    </linearGradient>
    <linearGradient id="field3a" x1="0" y1="0" x2="1" y2="0">
      <stop offset="0%" stop-color="#22C55E"/>
      <stop offset="100%" stop-color="#16A34A"/>
    </linearGradient>
    <linearGradient id="field3b" x1="0" y1="0" x2="1" y2="0">
      <stop offset="0%" stop-color="#15803D"/>
      <stop offset="100%" stop-color="#14532D"/>
    </linearGradient>
  </defs>
  <rect x="0" y="0" width="1920" height="1080" fill="url(#sky3)" />
  <g transform="translate(0, 540)">
    <path d="M0,180 C450,140 850,140 1300,200 C1550,230 1730,220 1920,200 L1920,540 L0,540 Z" fill="url(#field3a)"/>
    <path d="M0,330 C420,290 820,310 1220,350 C1450,370 1680,360 1920,340 L1920,540 L0,540 Z" fill="url(#field3b)"/>
    <g fill="#9333EA" opacity="0.15">
      <circle cx="240" cy="120" r="30"/>
      <circle cx="540" cy="100" r="25"/>
      <circle cx="920" cy="130" r="28"/>
      <circle cx="1260" cy="110" r="24"/>
      <circle cx="1620" cy="140" r="26"/>
    </g>
  </g>
</svg>
