<svg xmlns="http://www.w3.org/2000/svg" width="1920" height="1080" viewBox="0 0 1920 1080" preserveAspectRatio="xMidYMid slice">
  <defs>
    <linearGradient id="sky2" x1="0" y1="0" x2="0" y2="1">
      <stop offset="0%" stop-color="#E0F2FE"/>
      <stop offset="100%" stop-color="#BAE6FD"/>
    </linearGradient>
    <linearGradient id="field2a" x1="0" y1="0" x2="1" y2="0">
      <stop offset="0%" stop-color="#84CC16"/>
      <stop offset="100%" stop-color="#65A30D"/>
    </linearGradient>
    <linearGradient id="field2b" x1="0" y1="0" x2="1" y2="0">
      <stop offset="0%" stop-color="#4D7C0F"/>
      <stop offset="100%" stop-color="#3F6212"/>
    </linearGradient>
  </defs>
  <rect x="0" y="0" width="1920" height="1080" fill="url(#sky2)" />
  <g transform="translate(0, 520)">
    <path d="M0,220 C500,160 900,160 1400,220 C1600,240 1760,240 1920,220 L1920,560 L0,560 Z" fill="url(#field2a)"/>
    <path d="M0,360 C400,320 800,340 1200,380 C1500,420 1710,410 1920,380 L1920,560 L0,560 Z" fill="url(#field2b)"/>
    <g fill="#06B6D4" opacity="0.2">
      <rect x="200" y="80" width="120" height="60" rx="8"/>
      <rect x="500" y="120" width="180" height="70" rx="8"/>
      <rect x="900" y="90" width="140" height="60" rx="8"/>
      <rect x="1300" y="110" width="160" height="70" rx="8"/>
      <rect x="1600" y="85" width="120" height="60" rx="8"/>
    </g>
  </g>
</svg>
