<svg xmlns="http://www.w3.org/2000/svg" width="1920" height="1080" viewBox="0 0 1920 1080" preserveAspectRatio="xMidYMid slice">
  <defs>
    <linearGradient id="sky" x1="0" y1="0" x2="0" y2="1">
      <stop offset="0%" stop-color="#E8F5E9"/>
      <stop offset="100%" stop-color="#C8E6C9"/>
    </linearGradient>
    <linearGradient id="field1" x1="0" y1="0" x2="1" y2="0">
      <stop offset="0%" stop-color="#22C55E"/>
      <stop offset="100%" stop-color="#16A34A"/>
    </linearGradient>
    <linearGradient id="field2" x1="0" y1="0" x2="1" y2="0">
      <stop offset="0%" stop-color="#15803D"/>
      <stop offset="100%" stop-color="#14532D"/>
    </linearGradient>
  </defs>
  <rect x="0" y="0" width="1920" height="1080" fill="url(#sky)" />
  <g transform="translate(0, 540)">
    <path d="M0,200 C400,100 800,100 1200,200 C1500,270 1710,260 1920,220 L1920,540 L0,540 Z" fill="url(#field1)"/>
    <path d="M0,340 C500,280 900,300 1400,360 C1600,380 1760,380 1920,360 L1920,540 L0,540 Z" fill="url(#field2)"/>
    <g fill="#0EA5E9" opacity="0.15">
      <circle cx="200" cy="120" r="60"/>
      <circle cx="480" cy="80" r="40"/>
      <circle cx="860" cy="140" r="50"/>
      <circle cx="1220" cy="100" r="35"/>
      <circle cx="1600" cy="130" r="45"/>
    </g>
  </g>
  <g transform="translate(1400, 260)">
    <rect x="-40" y="0" width="80" height="140" rx="8" fill="#22C55E"/>
    <rect x="60" y="20" width="80" height="120" rx="8" fill="#16A34A"/>
    <rect x="160" y="40" width="80" height="100" rx="8" fill="#15803D"/>
  </g>
</svg>
